<svg width="450" height="156" viewBox="0 0 450 156" fill="none" xmlns="http://www.w3.org/2000/svg">
<path d="M90.2574 0.391113H0.0253906V26.2604H90.2574C97.3758 26.2604 103.148 32.0525 103.148 39.1954V52.1304H39.4874C17.693 52.1304 0.0253906 69.7977 0.0253906 91.5923V155.608H25.8061V94.7762L91.0503 155.605H128.935L45.6889 77.9997H103.148V52.2563H128.935V39.1954C128.935 17.7643 111.613 0.391113 90.2574 0.391113Z" fill="black" style="fill:black;fill-opacity:1;"/>
<path d="M173.651 0.391113H147.76V155.608H173.651V0.391113Z" fill="black" style="fill:black;fill-opacity:1;"/>
<path d="M192.618 51.8245C192.618 73.2556 209.94 90.6287 231.295 90.6287H274.958C282.077 90.6287 287.848 96.4607 287.848 103.604L287.848 116.804C287.848 123.947 282.076 129.739 274.958 129.739H192.618V155.608H274.958C296.314 155.608 313.635 138.235 313.635 116.804L313.636 103.604C313.636 82.1731 296.314 64.7999 274.958 64.7999H231.295C224.177 64.7999 218.405 58.9679 218.405 51.8245L218.406 39.1954C218.406 32.0525 224.177 26.2604 231.296 26.2604H305.743V0.391113H231.296C209.94 0.391113 192.619 17.7643 192.619 39.1954L192.618 51.8245Z" fill="black" style="fill:black;fill-opacity:1;"/>
<path d="M328.064 39.1954L328.063 52.2563H353.851L353.851 39.1954C353.851 32.0525 359.623 26.2604 366.741 26.2604H449.975V0.391113H366.741C345.385 0.391113 328.064 17.7643 328.064 39.1954Z" fill="black" style="fill:black;fill-opacity:1;"/>
<path d="M367.634 64.7999H441.207V90.6287L367.634 90.6692C360.516 90.6692 354.744 96.4607 354.744 103.604L354.745 116.805C354.745 123.947 360.517 129.739 367.635 129.739H449.975V155.609H367.635C346.279 155.609 328.958 138.235 328.958 116.805L328.957 103.604C328.957 82.1724 346.279 64.7999 367.634 64.7999Z" fill="black" style="fill:black;fill-opacity:1;"/>
</svg>
