<svg width="156" height="54" viewBox="0 0 156 54" fill="none" xmlns="http://www.w3.org/2000/svg">
<path d="M31.284 0H0V8.99989H31.284C33.752 8.99989 35.7531 11.015 35.7531 13.4999V18H13.6817C6.12548 18 0 24.1464 0 31.7288V53.9998H8.93831V32.8364L31.5589 53.9987H44.6935L15.8318 26.9999H35.7531V18.0438H44.6935V13.4999C44.6935 6.04409 38.6881 0 31.284 0Z" fill="white"/>
<path d="M60.1971 0H51.2203V53.9998H60.1971V0Z" fill="white"/>
<path d="M66.773 17.8936C66.773 25.3494 72.7785 31.3935 80.1826 31.3935H95.3209C97.7889 31.3935 99.7899 33.4224 99.7899 35.9077L99.7898 40.4998C99.7898 42.985 97.7887 44.9999 95.3206 44.9999H66.773V53.9998H95.3206C102.725 53.9998 108.73 47.9557 108.73 40.4998L108.73 35.9077C108.73 28.4518 102.725 22.4077 95.3209 22.4077H80.1826C77.7146 22.4077 75.7136 20.3788 75.7136 17.8936L75.7137 13.4999C75.7137 11.015 77.7148 8.99989 80.1828 8.99989H105.994V0H80.1828C72.7786 0 66.7733 6.04409 66.7733 13.4999L66.773 17.8936Z" fill="white"/>
<path d="M113.733 13.4999L113.733 18.0438H122.673L122.673 13.4999C122.673 11.015 124.674 8.99989 127.142 8.99989H156V0H127.142C119.738 0 113.733 6.04409 113.733 13.4999Z" fill="white"/>
<path d="M127.452 22.4077H152.96V31.3935L127.452 31.4076C124.984 31.4076 122.983 33.4224 122.983 35.9077L122.983 40.5001C122.983 42.985 124.984 44.9999 127.452 44.9999H156V54H127.452C120.048 54 114.043 47.9557 114.043 40.5001L114.043 35.9077C114.043 28.4516 120.048 22.4077 127.452 22.4077Z" fill="white"/>
</svg>
